# Blender v2.79 (sub 0) OBJ File: 'grass.blend'
# www.blender.org
mtllib grass.mtl
o Grid_Grid.001
v -50.000000 0.000000 50.000000
v -42.857143 0.000000 50.000000
v -35.714287 0.000000 50.000000
v -28.571426 0.000000 50.000000
v -21.428570 0.000000 50.000000
v -14.285713 0.000000 50.000000
v -7.142854 0.000000 50.000000
v 0.000000 0.000000 50.000000
v 7.142859 0.000000 50.000000
v 14.285719 0.000000 50.000000
v 21.428574 0.000000 50.000000
v 28.571432 0.000000 50.000000
v 35.714294 0.000000 50.000000
v 42.857147 0.000000 50.000000
v 50.000000 0.000000 50.000000
v -50.000000 0.000000 42.857143
v -42.857143 0.000000 42.857143
v -35.714287 0.000000 42.857143
v -28.571426 0.000000 42.857143
v -21.428570 0.000000 42.857143
v -14.285713 0.000000 42.857143
v -7.142854 0.000000 42.857143
v 0.000000 0.000000 42.857143
v 7.142859 0.000000 42.857143
v 14.285719 0.000000 42.857143
v 21.428574 0.000000 42.857143
v 28.571432 0.000000 42.857143
v 35.714294 0.000000 42.857143
v 42.857147 0.000000 42.857143
v 50.000000 0.000000 42.857143
v -50.000000 0.000000 35.714287
v -42.857143 0.000000 35.714287
v -35.714287 0.000000 35.714287
v -28.571426 0.000000 35.714287
v -21.428570 0.000000 35.714287
v -14.285713 0.000000 35.714287
v -7.142854 0.000000 35.714287
v 0.000000 0.000000 35.714287
v 7.142859 0.000000 35.714287
v 14.285719 0.000000 35.714287
v 21.428574 0.000000 35.714287
v 28.571432 0.000000 35.714287
v 35.714294 0.000000 35.714287
v 42.857147 0.000000 35.714287
v 50.000000 0.000000 35.714287
v -50.000000 0.000000 28.571426
v -42.857143 0.000000 28.571426
v -35.714287 0.000000 28.571426
v -28.571426 0.000000 28.571426
v -21.428570 0.000000 28.571426
v -14.285713 0.000000 28.571426
v -7.142854 0.000000 28.571426
v 0.000000 0.000000 28.571426
v 7.142859 0.000000 28.571426
v 14.285719 0.000000 28.571426
v 21.428574 0.000000 28.571426
v 28.571432 0.000000 28.571426
v 35.714294 0.000000 28.571426
v 42.857147 0.000000 28.571426
v 50.000000 0.000000 28.571426
v -50.000000 0.000000 21.428570
v -42.857143 0.000000 21.428570
v -35.714287 0.000000 21.428570
v -28.571426 0.000000 21.428570
v -21.428570 0.000000 21.428570
v -14.285713 0.000000 21.428570
v -7.142854 0.000000 21.428570
v 0.000000 0.000000 21.428570
v 7.142859 0.000000 21.428570
v 14.285719 0.000000 21.428570
v 21.428574 0.000000 21.428570
v 28.571432 0.000000 21.428570
v 35.714294 0.000000 21.428570
v 42.857147 0.000000 21.428570
v 50.000000 0.000000 21.428570
v -50.000000 0.000000 14.285713
v -42.857143 0.000000 14.285713
v -35.714287 0.000000 14.285713
v -28.571426 0.000000 14.285713
v -21.428570 0.000000 14.285713
v -14.285713 0.000000 14.285713
v -7.142854 0.000000 14.285713
v 0.000000 0.000000 14.285713
v 7.142859 0.000000 14.285713
v 14.285719 0.000000 14.285713
v 21.428574 0.000000 14.285713
v 28.571432 0.000000 14.285713
v 35.714294 0.000000 14.285713
v 42.857147 0.000000 14.285713
v 50.000000 0.000000 14.285713
v -50.000000 0.000000 7.142854
v -42.857143 0.000000 7.142854
v -35.714287 0.000000 7.142854
v -28.571426 0.000000 7.142854
v -21.428570 0.000000 7.142854
v -14.285713 0.000000 7.142854
v -7.142854 0.000000 7.142854
v 0.000000 0.000000 7.142854
v 7.142859 0.000000 7.142854
v 14.285719 0.000000 7.142854
v 21.428574 0.000000 7.142854
v 28.571432 0.000000 7.142854
v 35.714294 0.000000 7.142854
v 42.857147 0.000000 7.142854
v 50.000000 0.000000 7.142854
v -50.000000 0.000000 0.000000
v -42.857143 0.000000 0.000000
v -35.714287 0.000000 0.000000
v -28.571426 0.000000 0.000000
v -21.428570 0.000000 0.000000
v -14.285713 0.000000 0.000000
v -7.142854 0.000000 0.000000
v 0.000000 0.000000 0.000000
v 7.142859 0.000000 0.000000
v 14.285719 0.000000 0.000000
v 21.428574 0.000000 0.000000
v 28.571432 0.000000 0.000000
v 35.714294 0.000000 0.000000
v 42.857147 0.000000 0.000000
v 50.000000 0.000000 0.000000
v -50.000000 0.000000 -7.142859
v -42.857143 0.000000 -7.142859
v -35.714287 0.000000 -7.142859
v -28.571426 0.000000 -7.142859
v -21.428570 0.000000 -7.142859
v -14.285713 0.000000 -7.142859
v -7.142854 0.000000 -7.142859
v 0.000000 0.000000 -7.142859
v 7.142859 0.000000 -7.142859
v 14.285719 0.000000 -7.142859
v 21.428574 0.000000 -7.142859
v 28.571432 0.000000 -7.142859
v 35.714294 0.000000 -7.142859
v 42.857147 0.000000 -7.142859
v 50.000000 0.000000 -7.142859
v -50.000000 0.000000 -14.285719
v -42.857143 0.000000 -14.285719
v -35.714287 0.000000 -14.285719
v -28.571426 0.000000 -14.285719
v -21.428570 0.000000 -14.285719
v -14.285713 0.000000 -14.285719
v -7.142854 0.000000 -14.285719
v 0.000000 0.000000 -14.285719
v 7.142859 0.000000 -14.285719
v 14.285719 0.000000 -14.285719
v 21.428574 0.000000 -14.285719
v 28.571432 0.000000 -14.285719
v 35.714294 0.000000 -14.285719
v 42.857147 0.000000 -14.285719
v 50.000000 0.000000 -14.285719
v -50.000000 0.000000 -21.428574
v -42.857143 0.000000 -21.428574
v -35.714287 0.000000 -21.428574
v -28.571426 0.000000 -21.428574
v -21.428570 0.000000 -21.428574
v -14.285713 0.000000 -21.428574
v -7.142854 0.000000 -21.428574
v 0.000000 0.000000 -21.428574
v 7.142859 0.000000 -21.428574
v 14.285719 0.000000 -21.428574
v 21.428574 0.000000 -21.428574
v 28.571432 0.000000 -21.428574
v 35.714294 0.000000 -21.428574
v 42.857147 0.000000 -21.428574
v 50.000000 0.000000 -21.428574
v -50.000000 0.000000 -28.571432
v -42.857143 0.000000 -28.571432
v -35.714287 0.000000 -28.571432
v -28.571426 0.000000 -28.571432
v -21.428570 0.000000 -28.571432
v -14.285713 0.000000 -28.571432
v -7.142854 0.000000 -28.571432
v 0.000000 0.000000 -28.571432
v 7.142859 0.000000 -28.571432
v 14.285719 0.000000 -28.571432
v 21.428574 0.000000 -28.571432
v 28.571432 0.000000 -28.571432
v 35.714294 0.000000 -28.571432
v 42.857147 0.000000 -28.571432
v 50.000000 0.000000 -28.571432
v -50.000000 0.000000 -35.714294
v -42.857143 0.000000 -35.714294
v -35.714287 0.000000 -35.714294
v -28.571426 0.000000 -35.714294
v -21.428570 0.000000 -35.714294
v -14.285713 0.000000 -35.714294
v -7.142854 0.000000 -35.714294
v 0.000000 0.000000 -35.714294
v 7.142859 0.000000 -35.714294
v 14.285719 0.000000 -35.714294
v 21.428574 0.000000 -35.714294
v 28.571432 0.000000 -35.714294
v 35.714294 0.000000 -35.714294
v 42.857147 0.000000 -35.714294
v 50.000000 0.000000 -35.714294
v -50.000000 0.000000 -42.857147
v -42.857143 0.000000 -42.857147
v -35.714287 0.000000 -42.857147
v -28.571426 0.000000 -42.857147
v -21.428570 0.000000 -42.857147
v -14.285713 0.000000 -42.857147
v -7.142854 0.000000 -42.857147
v 0.000000 0.000000 -42.857147
v 7.142859 0.000000 -42.857147
v 14.285719 0.000000 -42.857147
v 21.428574 0.000000 -42.857147
v 28.571432 0.000000 -42.857147
v 35.714294 0.000000 -42.857147
v 42.857147 0.000000 -42.857147
v 50.000000 0.000000 -42.857147
v -50.000000 0.000000 -50.000000
v -42.857143 0.000000 -50.000000
v -35.714287 0.000000 -50.000000
v -28.571426 0.000000 -50.000000
v -21.428570 0.000000 -50.000000
v -14.285713 0.000000 -50.000000
v -7.142854 0.000000 -50.000000
v 0.000000 0.000000 -50.000000
v 7.142859 0.000000 -50.000000
v 14.285719 0.000000 -50.000000
v 21.428574 0.000000 -50.000000
v 28.571432 0.000000 -50.000000
v 35.714294 0.000000 -50.000000
v 42.857147 0.000000 -50.000000
v 50.000000 0.000000 -50.000000
vn 0.0000 1.0000 0.0000
g Grid_Grid.001_None
usemtl None
s off
f 2//1 16//1 1//1
f 3//1 17//1 2//1
f 4//1 18//1 3//1
f 5//1 19//1 4//1
f 6//1 20//1 5//1
f 7//1 21//1 6//1
f 8//1 22//1 7//1
f 9//1 23//1 8//1
f 10//1 24//1 9//1
f 11//1 25//1 10//1
f 12//1 26//1 11//1
f 13//1 27//1 12//1
f 14//1 28//1 13//1
f 15//1 29//1 14//1
f 17//1 31//1 16//1
f 18//1 32//1 17//1
f 19//1 33//1 18//1
f 20//1 34//1 19//1
f 21//1 35//1 20//1
f 22//1 36//1 21//1
f 23//1 37//1 22//1
f 24//1 38//1 23//1
f 25//1 39//1 24//1
f 26//1 40//1 25//1
f 27//1 41//1 26//1
f 28//1 42//1 27//1
f 29//1 43//1 28//1
f 30//1 44//1 29//1
f 32//1 46//1 31//1
f 33//1 47//1 32//1
f 34//1 48//1 33//1
f 35//1 49//1 34//1
f 36//1 50//1 35//1
f 37//1 51//1 36//1
f 38//1 52//1 37//1
f 39//1 53//1 38//1
f 40//1 54//1 39//1
f 41//1 55//1 40//1
f 42//1 56//1 41//1
f 43//1 57//1 42//1
f 44//1 58//1 43//1
f 45//1 59//1 44//1
f 47//1 61//1 46//1
f 48//1 62//1 47//1
f 49//1 63//1 48//1
f 50//1 64//1 49//1
f 51//1 65//1 50//1
f 52//1 66//1 51//1
f 53//1 67//1 52//1
f 54//1 68//1 53//1
f 55//1 69//1 54//1
f 56//1 70//1 55//1
f 57//1 71//1 56//1
f 58//1 72//1 57//1
f 59//1 73//1 58//1
f 60//1 74//1 59//1
f 62//1 76//1 61//1
f 63//1 77//1 62//1
f 64//1 78//1 63//1
f 65//1 79//1 64//1
f 66//1 80//1 65//1
f 67//1 81//1 66//1
f 68//1 82//1 67//1
f 69//1 83//1 68//1
f 70//1 84//1 69//1
f 71//1 85//1 70//1
f 72//1 86//1 71//1
f 73//1 87//1 72//1
f 74//1 88//1 73//1
f 75//1 89//1 74//1
f 77//1 91//1 76//1
f 78//1 92//1 77//1
f 79//1 93//1 78//1
f 80//1 94//1 79//1
f 81//1 95//1 80//1
f 82//1 96//1 81//1
f 83//1 97//1 82//1
f 84//1 98//1 83//1
f 85//1 99//1 84//1
f 86//1 100//1 85//1
f 87//1 101//1 86//1
f 88//1 102//1 87//1
f 89//1 103//1 88//1
f 90//1 104//1 89//1
f 92//1 106//1 91//1
f 93//1 107//1 92//1
f 94//1 108//1 93//1
f 95//1 109//1 94//1
f 96//1 110//1 95//1
f 97//1 111//1 96//1
f 98//1 112//1 97//1
f 99//1 113//1 98//1
f 100//1 114//1 99//1
f 101//1 115//1 100//1
f 102//1 116//1 101//1
f 103//1 117//1 102//1
f 104//1 118//1 103//1
f 105//1 119//1 104//1
f 107//1 121//1 106//1
f 108//1 122//1 107//1
f 109//1 123//1 108//1
f 110//1 124//1 109//1
f 111//1 125//1 110//1
f 112//1 126//1 111//1
f 113//1 127//1 112//1
f 114//1 128//1 113//1
f 115//1 129//1 114//1
f 116//1 130//1 115//1
f 117//1 131//1 116//1
f 118//1 132//1 117//1
f 119//1 133//1 118//1
f 120//1 134//1 119//1
f 122//1 136//1 121//1
f 123//1 137//1 122//1
f 124//1 138//1 123//1
f 125//1 139//1 124//1
f 126//1 140//1 125//1
f 127//1 141//1 126//1
f 128//1 142//1 127//1
f 129//1 143//1 128//1
f 130//1 144//1 129//1
f 131//1 145//1 130//1
f 132//1 146//1 131//1
f 133//1 147//1 132//1
f 134//1 148//1 133//1
f 135//1 149//1 134//1
f 137//1 151//1 136//1
f 138//1 152//1 137//1
f 139//1 153//1 138//1
f 140//1 154//1 139//1
f 141//1 155//1 140//1
f 142//1 156//1 141//1
f 143//1 157//1 142//1
f 144//1 158//1 143//1
f 145//1 159//1 144//1
f 146//1 160//1 145//1
f 147//1 161//1 146//1
f 148//1 162//1 147//1
f 149//1 163//1 148//1
f 150//1 164//1 149//1
f 152//1 166//1 151//1
f 153//1 167//1 152//1
f 154//1 168//1 153//1
f 155//1 169//1 154//1
f 156//1 170//1 155//1
f 157//1 171//1 156//1
f 158//1 172//1 157//1
f 159//1 173//1 158//1
f 160//1 174//1 159//1
f 161//1 175//1 160//1
f 162//1 176//1 161//1
f 163//1 177//1 162//1
f 164//1 178//1 163//1
f 165//1 179//1 164//1
f 167//1 181//1 166//1
f 168//1 182//1 167//1
f 169//1 183//1 168//1
f 170//1 184//1 169//1
f 171//1 185//1 170//1
f 172//1 186//1 171//1
f 173//1 187//1 172//1
f 174//1 188//1 173//1
f 175//1 189//1 174//1
f 176//1 190//1 175//1
f 177//1 191//1 176//1
f 178//1 192//1 177//1
f 179//1 193//1 178//1
f 180//1 194//1 179//1
f 182//1 196//1 181//1
f 183//1 197//1 182//1
f 184//1 198//1 183//1
f 185//1 199//1 184//1
f 186//1 200//1 185//1
f 187//1 201//1 186//1
f 188//1 202//1 187//1
f 189//1 203//1 188//1
f 190//1 204//1 189//1
f 191//1 205//1 190//1
f 192//1 206//1 191//1
f 193//1 207//1 192//1
f 194//1 208//1 193//1
f 195//1 209//1 194//1
f 197//1 211//1 196//1
f 198//1 212//1 197//1
f 199//1 213//1 198//1
f 200//1 214//1 199//1
f 201//1 215//1 200//1
f 202//1 216//1 201//1
f 203//1 217//1 202//1
f 204//1 218//1 203//1
f 205//1 219//1 204//1
f 206//1 220//1 205//1
f 207//1 221//1 206//1
f 208//1 222//1 207//1
f 209//1 223//1 208//1
f 210//1 224//1 209//1
f 2//1 17//1 16//1
f 3//1 18//1 17//1
f 4//1 19//1 18//1
f 5//1 20//1 19//1
f 6//1 21//1 20//1
f 7//1 22//1 21//1
f 8//1 23//1 22//1
f 9//1 24//1 23//1
f 10//1 25//1 24//1
f 11//1 26//1 25//1
f 12//1 27//1 26//1
f 13//1 28//1 27//1
f 14//1 29//1 28//1
f 15//1 30//1 29//1
f 17//1 32//1 31//1
f 18//1 33//1 32//1
f 19//1 34//1 33//1
f 20//1 35//1 34//1
f 21//1 36//1 35//1
f 22//1 37//1 36//1
f 23//1 38//1 37//1
f 24//1 39//1 38//1
f 25//1 40//1 39//1
f 26//1 41//1 40//1
f 27//1 42//1 41//1
f 28//1 43//1 42//1
f 29//1 44//1 43//1
f 30//1 45//1 44//1
f 32//1 47//1 46//1
f 33//1 48//1 47//1
f 34//1 49//1 48//1
f 35//1 50//1 49//1
f 36//1 51//1 50//1
f 37//1 52//1 51//1
f 38//1 53//1 52//1
f 39//1 54//1 53//1
f 40//1 55//1 54//1
f 41//1 56//1 55//1
f 42//1 57//1 56//1
f 43//1 58//1 57//1
f 44//1 59//1 58//1
f 45//1 60//1 59//1
f 47//1 62//1 61//1
f 48//1 63//1 62//1
f 49//1 64//1 63//1
f 50//1 65//1 64//1
f 51//1 66//1 65//1
f 52//1 67//1 66//1
f 53//1 68//1 67//1
f 54//1 69//1 68//1
f 55//1 70//1 69//1
f 56//1 71//1 70//1
f 57//1 72//1 71//1
f 58//1 73//1 72//1
f 59//1 74//1 73//1
f 60//1 75//1 74//1
f 62//1 77//1 76//1
f 63//1 78//1 77//1
f 64//1 79//1 78//1
f 65//1 80//1 79//1
f 66//1 81//1 80//1
f 67//1 82//1 81//1
f 68//1 83//1 82//1
f 69//1 84//1 83//1
f 70//1 85//1 84//1
f 71//1 86//1 85//1
f 72//1 87//1 86//1
f 73//1 88//1 87//1
f 74//1 89//1 88//1
f 75//1 90//1 89//1
f 77//1 92//1 91//1
f 78//1 93//1 92//1
f 79//1 94//1 93//1
f 80//1 95//1 94//1
f 81//1 96//1 95//1
f 82//1 97//1 96//1
f 83//1 98//1 97//1
f 84//1 99//1 98//1
f 85//1 100//1 99//1
f 86//1 101//1 100//1
f 87//1 102//1 101//1
f 88//1 103//1 102//1
f 89//1 104//1 103//1
f 90//1 105//1 104//1
f 92//1 107//1 106//1
f 93//1 108//1 107//1
f 94//1 109//1 108//1
f 95//1 110//1 109//1
f 96//1 111//1 110//1
f 97//1 112//1 111//1
f 98//1 113//1 112//1
f 99//1 114//1 113//1
f 100//1 115//1 114//1
f 101//1 116//1 115//1
f 102//1 117//1 116//1
f 103//1 118//1 117//1
f 104//1 119//1 118//1
f 105//1 120//1 119//1
f 107//1 122//1 121//1
f 108//1 123//1 122//1
f 109//1 124//1 123//1
f 110//1 125//1 124//1
f 111//1 126//1 125//1
f 112//1 127//1 126//1
f 113//1 128//1 127//1
f 114//1 129//1 128//1
f 115//1 130//1 129//1
f 116//1 131//1 130//1
f 117//1 132//1 131//1
f 118//1 133//1 132//1
f 119//1 134//1 133//1
f 120//1 135//1 134//1
f 122//1 137//1 136//1
f 123//1 138//1 137//1
f 124//1 139//1 138//1
f 125//1 140//1 139//1
f 126//1 141//1 140//1
f 127//1 142//1 141//1
f 128//1 143//1 142//1
f 129//1 144//1 143//1
f 130//1 145//1 144//1
f 131//1 146//1 145//1
f 132//1 147//1 146//1
f 133//1 148//1 147//1
f 134//1 149//1 148//1
f 135//1 150//1 149//1
f 137//1 152//1 151//1
f 138//1 153//1 152//1
f 139//1 154//1 153//1
f 140//1 155//1 154//1
f 141//1 156//1 155//1
f 142//1 157//1 156//1
f 143//1 158//1 157//1
f 144//1 159//1 158//1
f 145//1 160//1 159//1
f 146//1 161//1 160//1
f 147//1 162//1 161//1
f 148//1 163//1 162//1
f 149//1 164//1 163//1
f 150//1 165//1 164//1
f 152//1 167//1 166//1
f 153//1 168//1 167//1
f 154//1 169//1 168//1
f 155//1 170//1 169//1
f 156//1 171//1 170//1
f 157//1 172//1 171//1
f 158//1 173//1 172//1
f 159//1 174//1 173//1
f 160//1 175//1 174//1
f 161//1 176//1 175//1
f 162//1 177//1 176//1
f 163//1 178//1 177//1
f 164//1 179//1 178//1
f 165//1 180//1 179//1
f 167//1 182//1 181//1
f 168//1 183//1 182//1
f 169//1 184//1 183//1
f 170//1 185//1 184//1
f 171//1 186//1 185//1
f 172//1 187//1 186//1
f 173//1 188//1 187//1
f 174//1 189//1 188//1
f 175//1 190//1 189//1
f 176//1 191//1 190//1
f 177//1 192//1 191//1
f 178//1 193//1 192//1
f 179//1 194//1 193//1
f 180//1 195//1 194//1
f 182//1 197//1 196//1
f 183//1 198//1 197//1
f 184//1 199//1 198//1
f 185//1 200//1 199//1
f 186//1 201//1 200//1
f 187//1 202//1 201//1
f 188//1 203//1 202//1
f 189//1 204//1 203//1
f 190//1 205//1 204//1
f 191//1 206//1 205//1
f 192//1 207//1 206//1
f 193//1 208//1 207//1
f 194//1 209//1 208//1
f 195//1 210//1 209//1
f 197//1 212//1 211//1
f 198//1 213//1 212//1
f 199//1 214//1 213//1
f 200//1 215//1 214//1
f 201//1 216//1 215//1
f 202//1 217//1 216//1
f 203//1 218//1 217//1
f 204//1 219//1 218//1
f 205//1 220//1 219//1
f 206//1 221//1 220//1
f 207//1 222//1 221//1
f 208//1 223//1 222//1
f 209//1 224//1 223//1
f 210//1 225//1 224//1
